<svg xmlns="http://www.w3.org/2000/svg" version="1.1" xmlns:xlink="http://www.w3.org/1999/xlink" xmlns:svgjs="http://svgjs.com/svgjs" width="512" height="512" x="0" y="0" viewBox="0 0 128 128" style="enable-background:new 0 0 512 512" xml:space="preserve" class=""><g><linearGradient xmlns="http://www.w3.org/2000/svg" id="SVGID_1_" gradientUnits="userSpaceOnUse" x1="108.736" x2="36.793" y1="109.426" y2="37.483"><stop offset=".06099907" stop-color="#fff" stop-opacity="0"></stop><stop offset=".162" stop-color="#cdcdcd" stop-opacity=".108"></stop><stop offset=".2839" stop-color="#979797" stop-opacity=".237"></stop><stop offset=".4075" stop-color="#696969" stop-opacity=".369"></stop><stop offset=".5299" stop-color="#434343" stop-opacity=".499"></stop><stop offset=".6511" stop-color="#262626" stop-opacity=".628"></stop><stop offset=".7706" stop-color="#111" stop-opacity=".756"></stop><stop offset=".8878" stop-color="#040404" stop-opacity=".881"></stop><stop offset="1"></stop></linearGradient><g xmlns="http://www.w3.org/2000/svg"><path d="m128 64c0 1.3 0 2.6-.1 3.9-.1 2.1-.4 4.2-.7 6.3-4.3 27.3-25.9 48.8-53.2 53.1-2.6.4-5.3.7-8 .8-.7 0-1.3 0-2 0-35.4-.1-64-28.8-64-64.1 0-35.4 28.6-64 64-64 35.3 0 64 28.6 64 64z" fill="#eeae55" data-original="#eeae55" class=""></path><path d="m127.9 67.9c-.1 2.1-.4 4.2-.7 6.3-4.3 27.3-25.9 48.8-53.2 53.1-2.6.4-5.3.7-8 .8l-21.6-21.8 9.7-13.7-13.3-16.3 7.3-7.3-14.6-15.1 28.4-13.1 9 9.5 22.7-17.3z" fill="url(#SVGID_1_)" opacity=".2" data-original="url(#SVGID_1_)"></path><g><path d="m97.5 41.6c-.7-6.9-6.2-12.4-13-13.4-3-.4-5.8.1-8.3 1.2-2-5.1-6.9-8.8-12.8-8.8s-10.8 3.6-12.8 8.8c-2.5-1.1-5.3-1.6-8.3-1.2-6.8.9-12.3 6.5-13 13.4-.8 7.6 4 14.2 10.7 16.3v16c0 2.1 1.7 3.9 3.9 3.9h39c2.1 0 3.9-1.7 3.9-3.9v-16c6.8-2.1 11.5-8.7 10.7-16.3z" fill="#ecf0f3" data-original="#ecf0f3" class=""></path><g><g fill="#647a8a"><path d="m74.8 87c-4.5 1.8-8.8 3.9-8.8 8.8s4.6 6.2 8.8 8.8c11.1 6.8 8.8-3.9 8.8-8.8s4.2-14-8.8-8.8z" fill="#647a8a" data-original="#647a8a" class=""></path><path d="m51.9 87c4.5 1.8 8.8 3.9 8.8 8.8s-4.6 6.2-8.8 8.8c-11.1 6.8-8.8-3.9-8.8-8.8s-4.1-14 8.8-8.8z" fill="#647a8a" data-original="#647a8a" class=""></path></g><circle cx="63.4" cy="96.1" fill="#3b566a" r="7.9" data-original="#3b566a"></circle></g></g></g></g></svg>